<svg width="1326" height="373" viewBox="0 0 1326 373" fill="none" xmlns="http://www.w3.org/2000/svg">
<g clip-path="url(#clip0_28_213)">
<mask id="mask0_28_213" style="mask-type:alpha" maskUnits="userSpaceOnUse" x="0" y="172" width="276" height="201">
<path d="M229.859 240.5L275.43 259.5L269.922 271.5L267.418 288L264.914 316V372.5H66.6041L9.51487 231.5L0 209.5L27.543 194.5V172.5L60.0939 182.5L60.5947 181.5L62.5978 182L62.097 183L101.659 194.5L101.158 225L11.0172 205.5L3.50548 209.5L97.1518 246.5C95.9499 251.3 97.9864 256.167 99.1549 258L125.196 256.5L181.283 278L186.792 271.5L157.746 251.5C164.557 249.9 175.942 242.5 180.782 239C186.792 239 196.307 233.5 201.815 230.5L227.856 239.5L228.858 238.5L230.861 239.5L229.859 240.5Z" fill="#D9D9D9"/>
</mask>
<g mask="url(#mask0_28_213)">
<path d="M189.28 26.8266L200.832 10.2176C198.099 8.38371 187.272 4.59069 165.759 4C144.246 4.59 133.419 8.37829 130.686 10.2099L142.238 26.7984H115.008L70.4504 53.0634V64.8136L86.9532 113.888H67.1498L37.4447 142.226L27.543 151.212L30.8436 204.433C42.1205 214.801 73.2665 253.442 70.4504 325.391V371H261.068V325.788C261.068 257.968 289.397 215.062 300.674 204.681L303.975 151.394L294.073 142.397L264.368 114.024H244.565L261.068 64.8889V53.1242L216.51 26.8266H189.28Z" fill="#DADAD9"/>
</g>
<mask id="mask1_28_213" style="mask-type:alpha" maskUnits="userSpaceOnUse" x="17" y="0" width="303" height="244">
<path d="M245.383 220.5L230.36 207.5C232.764 205.5 233.365 203.667 233.365 203L247.887 193C260.908 180.5 259.405 169.5 258.905 166C258.404 162.5 257.903 163 256.901 162C255.131 160.232 253.897 153.5 239.875 154C228.657 154.4 206.489 166.5 196.808 172.5L165.759 191.5L164.257 191C159.049 177.8 148.399 182.833 143.725 187L129.202 183.5L118.185 149.5C118.185 143.5 111.508 144.667 108.169 146L101.659 149.5V177.5L28.0438 161L17.0266 125L96.1502 0L192.3 4.5L258.905 44.5L320 175.5L283.944 243.5L263.912 232C263.912 230.5 266.917 225.5 260.908 220C254.629 214.254 247.887 218 245.383 220.5Z" fill="#D9D9D9"/>
</mask>
<g mask="url(#mask1_28_213)">
<path d="M189.28 26.8266L200.832 10.2176C198.099 8.38371 187.272 4.59069 165.759 4C144.246 4.59 133.419 8.37829 130.686 10.2099L142.238 26.7984H115.008L70.4504 53.0634V64.8136L86.9532 113.888H67.1498L37.4447 142.226L27.543 151.212L30.8436 204.433C42.1205 214.801 73.2665 253.442 70.4504 325.391V371H261.068V325.788C261.068 257.968 289.397 215.062 300.674 204.681L303.975 151.394L294.073 142.397L264.368 114.024H244.565L261.068 64.8889V53.1242L216.51 26.8266H189.28Z" fill="#DADAD9"/>
</g>
<path d="M341.92 261.25V104.29H369.76V261.25H341.92ZM395.254 261.25V143.41H418.054L419.974 159.25H420.934C426.214 154.13 431.974 149.73 438.214 146.05C444.454 142.37 451.574 140.53 459.574 140.53C472.214 140.53 481.414 144.61 487.174 152.77C492.934 160.93 495.814 172.45 495.814 187.33V261.25H468.214V190.93C468.214 181.17 466.774 174.29 463.894 170.29C461.014 166.29 456.294 164.29 449.734 164.29C444.614 164.29 440.054 165.57 436.054 168.13C432.214 170.53 427.814 174.13 422.854 178.93V261.25H395.254ZM558.831 264.13C544.111 264.13 532.351 258.69 523.551 247.81C514.751 236.93 510.351 221.81 510.351 202.45C510.351 189.65 512.671 178.61 517.311 169.33C522.111 160.05 528.271 152.93 535.791 147.97C543.471 143.01 551.631 140.53 560.271 140.53C566.991 140.53 572.671 141.65 577.311 143.89C582.111 146.13 586.751 149.33 591.231 153.49L590.271 134.53V91.81H617.871V261.25H595.071L593.151 248.53H592.191C587.871 252.85 582.831 256.53 577.071 259.57C571.311 262.61 565.231 264.13 558.831 264.13ZM565.551 241.33C570.191 241.33 574.511 240.29 578.511 238.21C582.511 235.97 586.431 232.61 590.271 228.13V173.17C586.271 169.49 582.271 166.93 578.271 165.49C574.271 164.05 570.271 163.33 566.271 163.33C561.151 163.33 556.511 164.85 552.351 167.89C548.351 170.93 545.071 175.33 542.511 181.09C540.111 186.85 538.911 193.89 538.911 202.21C538.911 214.85 541.231 224.53 545.871 231.25C550.511 237.97 557.071 241.33 565.551 241.33ZM648.94 309.73C645.74 309.73 642.86 309.49 640.3 309.01C637.9 308.53 635.66 307.81 633.58 306.85L638.86 286.21C640.46 286.69 641.9 287.01 643.18 287.17C644.46 287.33 645.74 287.41 647.02 287.41C653.26 287.41 658.22 285.49 661.9 281.65C665.74 277.81 668.62 273.01 670.54 267.25L672.7 259.81L626.38 143.41H654.46L674.86 201.25C676.62 206.37 678.3 211.81 679.9 217.57C681.66 223.17 683.42 228.77 685.18 234.37H686.14C687.58 228.93 689.02 223.41 690.46 217.81C692.06 212.05 693.58 206.53 695.02 201.25L712.78 143.41H739.42L696.7 266.53C693.5 275.33 689.82 282.93 685.66 289.33C681.5 295.89 676.46 300.93 670.54 304.45C664.62 307.97 657.42 309.73 648.94 309.73ZM809.768 264.13C796.808 264.13 785.288 260.77 775.208 254.05C765.288 247.33 757.528 237.81 751.928 225.49C746.328 213.17 743.528 198.61 743.528 181.81C743.528 169.33 745.128 158.05 748.328 147.97C751.528 137.89 756.088 129.33 762.008 122.29C768.088 115.09 775.208 109.65 783.368 105.97C791.688 102.13 800.888 100.21 810.968 100.21C820.088 100.21 828.168 102.05 835.208 105.73C842.408 109.41 848.088 113.89 852.248 119.17L845.768 125.89C841.448 120.93 836.328 117.09 830.408 114.37C824.648 111.65 818.248 110.29 811.208 110.29C799.688 110.29 789.688 113.25 781.208 119.17C772.888 124.93 766.408 133.17 761.768 143.89C757.288 154.45 755.048 167.09 755.048 181.81C755.048 196.37 757.288 209.09 761.768 219.97C766.248 230.85 772.648 239.25 780.968 245.17C789.288 251.09 799.128 254.05 810.488 254.05C818.648 254.05 825.928 252.53 832.328 249.49C838.728 246.45 844.808 241.73 850.568 235.33L856.568 241.57C850.648 248.45 843.928 253.97 836.408 258.13C829.048 262.13 820.168 264.13 809.768 264.13ZM919.557 264.13C909.637 264.13 900.677 261.73 892.677 256.93C884.677 252.13 878.277 245.25 873.477 236.29C868.677 227.17 866.277 216.37 866.277 203.89C866.277 191.25 868.677 180.45 873.477 171.49C878.277 162.37 884.437 155.41 891.957 150.61C899.637 145.65 907.797 143.17 916.437 143.17C925.557 143.17 933.397 145.25 939.957 149.41C946.677 153.57 951.797 159.65 955.317 167.65C958.837 175.49 960.597 185.09 960.597 196.45C960.597 197.73 960.517 199.17 960.357 200.77C960.357 202.21 960.197 203.73 959.877 205.33H872.757V196.21H950.517C950.517 181.49 947.477 170.53 941.397 163.33C935.317 155.97 927.077 152.29 916.677 152.29C910.277 152.29 904.037 154.13 897.957 157.81C891.877 161.49 886.837 167.17 882.837 174.85C878.997 182.37 877.077 191.89 877.077 203.41C877.077 213.97 878.997 223.17 882.837 231.01C886.677 238.69 891.877 244.61 898.437 248.77C904.997 252.77 912.357 254.77 920.517 254.77C926.757 254.77 932.437 253.97 937.557 252.37C942.837 250.61 947.477 248.29 951.477 245.41L955.797 252.85C951.317 255.89 946.277 258.53 940.677 260.77C935.077 263.01 928.037 264.13 919.557 264.13ZM979.893 261.25V146.05H989.013L989.973 163.81H990.693C996.613 157.89 1002.69 153.01 1008.93 149.17C1015.33 145.17 1022.45 143.17 1030.29 143.17C1042.29 143.17 1051.09 146.85 1056.69 154.21C1062.29 161.41 1065.09 172.45 1065.09 187.33V261.25H1054.53V188.77C1054.53 176.45 1052.45 167.41 1048.29 161.65C1044.29 155.73 1037.57 152.77 1028.13 152.77C1021.25 152.77 1015.01 154.61 1009.41 158.29C1003.97 161.81 997.653 167.17 990.453 174.37V261.25H979.893ZM1127.07 263.17C1115.87 263.17 1108.27 259.97 1104.27 253.57C1100.27 247.17 1098.27 238.85 1098.27 228.61V155.17H1080.27V147.01L1098.51 146.05L1099.95 107.89H1109.07V146.05H1142.43V155.17H1109.07V229.33C1109.07 236.69 1110.35 242.69 1112.91 247.33C1115.47 251.81 1120.67 254.05 1128.51 254.05C1130.75 254.05 1132.99 253.81 1135.23 253.33C1137.63 252.69 1140.19 251.73 1142.91 250.45L1146.27 257.89C1143.23 259.49 1140.03 260.77 1136.67 261.73C1133.31 262.69 1130.11 263.17 1127.07 263.17ZM1199.49 264.13C1189.57 264.13 1180.61 261.73 1172.61 256.93C1164.61 252.13 1158.21 245.25 1153.41 236.29C1148.61 227.17 1146.21 216.37 1146.21 203.89C1146.21 191.25 1148.61 180.45 1153.41 171.49C1158.21 162.37 1164.37 155.41 1171.89 150.61C1179.57 145.65 1187.73 143.17 1196.37 143.17C1205.49 143.17 1213.33 145.25 1219.89 149.41C1226.61 153.57 1231.73 159.65 1235.25 167.65C1238.77 175.49 1240.53 185.09 1240.53 196.45C1240.53 197.73 1240.45 199.17 1240.29 200.77C1240.29 202.21 1240.13 203.73 1239.81 205.33H1152.69V196.21H1230.45C1230.45 181.49 1227.41 170.53 1221.33 163.33C1215.25 155.97 1207.01 152.29 1196.61 152.29C1190.21 152.29 1183.97 154.13 1177.89 157.81C1171.81 161.49 1166.77 167.17 1162.77 174.85C1158.93 182.37 1157.01 191.89 1157.01 203.41C1157.01 213.97 1158.93 223.17 1162.77 231.01C1166.61 238.69 1171.81 244.61 1178.37 248.77C1184.93 252.77 1192.29 254.77 1200.45 254.77C1206.69 254.77 1212.37 253.97 1217.49 252.37C1222.77 250.61 1227.41 248.29 1231.41 245.41L1235.73 252.85C1231.25 255.89 1226.21 258.53 1220.61 260.77C1215.01 263.01 1207.97 264.13 1199.49 264.13ZM1259.83 261.25V146.05H1268.95L1269.91 167.41H1270.63C1274.31 160.37 1278.87 154.61 1284.31 150.13C1289.91 145.49 1296.23 143.17 1303.27 143.17C1305.35 143.17 1307.27 143.33 1309.03 143.65C1310.95 143.97 1312.87 144.61 1314.79 145.57L1311.91 154.69C1310.31 154.21 1308.79 153.89 1307.35 153.73C1306.07 153.41 1304.23 153.25 1301.83 153.25C1296.71 153.25 1291.27 155.49 1285.51 159.97C1279.91 164.29 1274.87 171.89 1270.39 182.77V261.25H1259.83Z" fill="#DADAD9"/>
</g>
<defs>
<clipPath id="clip0_28_213">
<rect width="1326" height="372.5" fill="white"/>
</clipPath>
</defs>
</svg>
